<?xml version="1.0" encoding="UTF-8"?>
<svg id="art" xmlns="http://www.w3.org/2000/svg" xmlns:xlink="http://www.w3.org/1999/xlink" viewBox="0 0 920 1020">
  <defs>
    <style>
      .cls-1 {
        fill: url(#SYFT_1);
      }

      .cls-2 {
        fill: #282828;
      }
    </style>
    <linearGradient id="SYFT_1" data-name="SYFT 1" x1="231.75" y1="28.81" x2="734.97" y2="532.03" gradientUnits="userSpaceOnUse">
      <stop offset="0" stop-color="#ff7800"/>
      <stop offset=".5" stop-color="#fa2864"/>
      <stop offset="1" stop-color="#9628dc"/>
    </linearGradient>
  </defs>
  <g>
    <path class="cls-2" d="M105.39,854.71v28.29h-38.22v77.64c0,13.54,7.52,16.85,16.55,16.85,8.13,0,14.75-2.71,21.07-6.92h5.12v29.79c-7.82,4.21-22.57,7.53-30.39,7.53-31.3,0-49.06-15.65-49.06-50.56v-74.33H10v-16.55c23.47-11.13,33.7-27.69,41.23-45.74h15.95v34h38.22Z"/>
    <path class="cls-2" d="M270.92,926.04c0,6.92-.6,15.35-.6,15.35h-108.94c3.01,22.87,15.95,38.82,39.12,38.82,16.86,0,27.08-5.42,33.1-18.66h35.51c-7.82,31.9-34.61,48.45-69.82,48.45-41.53,0-75.23-31.6-75.23-77.34v-4.82c0-45.74,33.41-77.64,74.93-77.64s71.93,30.1,71.93,75.84ZM200.2,879.99c-22.27,0-33.4,13.24-37.92,32.8h71.32c-1.2-18.35-11.74-32.8-33.41-32.8Z"/>
    <path class="cls-2" d="M301.33,1005.18v-150.47h27.98l5.72,18.36h.6c11.44-16.25,27.39-22.88,45.14-22.88,32.8,0,55.07,22.57,55.07,53.57v101.41h-36.11v-90.58c0-23.17-12.34-33.41-30.1-33.41-19.56,0-31.9,10.84-31.9,33.71v90.28h-36.41Z"/>
    <path class="cls-2" d="M521.93,850.2c31,0,55.97,12.94,57.78,43.04v3.01h-33.1c-.91-13.84-9.93-18.96-24.68-18.96s-21.66,5.72-21.66,15.65c0,7.52,5.42,13.24,14.14,15.35,17.45,4.21,43.04,6.02,57.48,20.47,7.22,7.22,12.03,18.66,12.03,30.39v1.5c0,36.11-32.5,49.06-60.18,49.06-33.41,0-59.29-15.05-60.79-49.66v-3.01h34.31c0,17.45,8.73,24.98,27.08,24.98,15.65,0,24.08-7.52,24.08-18.06,0-7.82-4.21-14.74-17.15-18.35-14.45-3.91-40.63-4.82-55.38-19.56-6.32-6.32-11.44-17.15-11.44-28.29v-1.81c0-32.8,30.1-45.75,57.48-45.75Z"/>
    <path class="cls-2" d="M612.23,1005.18v-150.47h36.71v150.47h-36.71Z"/>
    <path class="cls-2" d="M722.51,954.03c0,18.05,11.13,23.47,25.88,21.36h3.61v29.19c-6.92,1.51-11.44,2.11-19.26,2.11-30.09,0-46.94-15.65-46.94-50.26v-161.9h36.71v159.5Z"/>
    <path class="cls-2" d="M910,926.04c0,6.92-.6,15.35-.6,15.35h-108.94c3.01,22.87,15.95,38.82,39.12,38.82,16.86,0,27.08-5.42,33.1-18.66h35.51c-7.82,31.9-34.61,48.45-69.82,48.45-41.53,0-75.23-31.6-75.23-77.34v-4.82c0-45.74,33.41-77.64,74.93-77.64s71.93,30.1,71.93,75.84ZM839.28,879.99c-22.27,0-33.4,13.24-37.92,32.8h71.32c-1.2-18.35-11.74-32.8-33.41-32.8Z"/>
    <ellipse class="cls-2" cx="630.59" cy="813.14" rx="23.86" ry="23.28"/>
  </g>
  <path class="cls-1" d="M803,129.4V10h-89.48c-95.42,0-183.14,33.45-252.21,89.17C392.23,43.45,304.51,10,209.09,10h-92.09v119.4h92.09c64.24,0,123.54,21.54,171.12,57.74-11.96,17.62-22.5,36.27-31.59,55.73-38.67-31.91-88.19-51.11-142.11-51.11h-89.51v119.4h89.51c57.32,0,103.97,46.48,104.36,103.76v260.28c36.62,18.86,76.88,30.9,119.33,34.79l-.03-297.04c0-46.43,11.28-90.25,31.13-128.98,19.85,38.72,31.13,82.54,31.13,128.98l-.03,296.83c42.52-4.25,82.76-16.76,119.33-36.01v-258.85c.39-57.28,47.03-103.76,104.36-103.76h86.9v-119.4h-86.9c-53.92,0-103.44,19.19-142.11,51.11-9.09-19.46-19.63-38.11-31.59-55.73,47.58-36.2,106.87-57.74,171.12-57.74h89.48ZM673.88,417.89v213.76c72.47-61.66,120.9-153.91,128.09-258.41l-83.28-.12c-24.74-.04-44.81,20.02-44.81,44.77ZM203.93,373.12l-85.9.13c7.28,105.75,56.79,198.95,130.7,260.6v-215.95c0-24.75-20.07-44.81-44.81-44.77Z"/>
</svg>